<mxfile host="app.diagrams.net" modified="2024-06-14T08:16:29.448Z" agent="Mozilla/5.0 (Windows NT 10.0; Win64; x64) AppleWebKit/537.36 (KHTML, like Gecko) Chrome/125.0.0.0 Safari/537.36 Edg/125.0.0.0" etag="Jqq4iaLyN83w_EkjBbqI" version="24.4.13" type="github">
  <diagram name="第 1 页" id="Op_GW3jsk4U-UPSQNlv_">
    <mxGraphModel dx="2341" dy="2026" grid="1" gridSize="10" guides="1" tooltips="1" connect="1" arrows="1" fold="1" page="1" pageScale="1" pageWidth="827" pageHeight="1169" math="1" shadow="0">
      <root>
        <mxCell id="0" />
        <mxCell id="1" parent="0" />
        <mxCell id="awNjA4CXRsY28UhJh66Y-1" value="" style="rounded=0;whiteSpace=wrap;html=1;" parent="1" vertex="1">
          <mxGeometry x="-80" y="-20" width="920" height="696" as="geometry" />
        </mxCell>
        <mxCell id="awNjA4CXRsY28UhJh66Y-2" value="" style="endArrow=none;dashed=1;html=1;rounded=0;exitX=-0.003;exitY=0.47;exitDx=0;exitDy=0;exitPerimeter=0;entryX=1;entryY=0.464;entryDx=0;entryDy=0;entryPerimeter=0;curved=0;strokeColor=#666666;" parent="1" source="awNjA4CXRsY28UhJh66Y-1" edge="1">
          <mxGeometry width="50" height="50" relative="1" as="geometry">
            <mxPoint x="-98.11999999999989" y="309.2399999999998" as="sourcePoint" />
            <mxPoint x="840" y="309.2399999999998" as="targetPoint" />
          </mxGeometry>
        </mxCell>
        <mxCell id="gjBuXh8FQjtO3Kq-rvw9-58" value="" style="rounded=0;whiteSpace=wrap;html=1;fillColor=#f5f5f5;fontColor=#333333;strokeColor=#666666;" parent="1" vertex="1">
          <mxGeometry x="425" y="320" width="270" height="160" as="geometry" />
        </mxCell>
        <mxCell id="gjBuXh8FQjtO3Kq-rvw9-1" value="" style="rounded=0;whiteSpace=wrap;html=1;" parent="1" vertex="1">
          <mxGeometry x="230" y="40" width="340" height="170" as="geometry" />
        </mxCell>
        <mxCell id="gjBuXh8FQjtO3Kq-rvw9-2" value="" style="rounded=0;whiteSpace=wrap;html=1;fillColor=#f5f5f5;fontColor=#333333;strokeColor=#666666;" parent="1" vertex="1">
          <mxGeometry x="10" y="320" width="270" height="160" as="geometry" />
        </mxCell>
        <mxCell id="gjBuXh8FQjtO3Kq-rvw9-4" value="" style="shape=flexArrow;endArrow=classic;html=1;rounded=0;entryX=1;entryY=1;entryDx=0;entryDy=0;fillColor=#f0a30a;strokeColor=#BD7000;exitX=0;exitY=1;exitDx=0;exitDy=0;" parent="1" source="gjBuXh8FQjtO3Kq-rvw9-2" target="gjBuXh8FQjtO3Kq-rvw9-2" edge="1">
          <mxGeometry width="50" height="50" relative="1" as="geometry">
            <mxPoint x="80" y="480" as="sourcePoint" />
            <mxPoint x="180" y="480" as="targetPoint" />
          </mxGeometry>
        </mxCell>
        <mxCell id="gjBuXh8FQjtO3Kq-rvw9-7" value="" style="group" parent="1" vertex="1" connectable="0">
          <mxGeometry x="74" y="454" width="60" height="50" as="geometry" />
        </mxCell>
        <mxCell id="gjBuXh8FQjtO3Kq-rvw9-5" value="" style="ellipse;whiteSpace=wrap;html=1;" parent="gjBuXh8FQjtO3Kq-rvw9-7" vertex="1">
          <mxGeometry width="50" height="50" as="geometry" />
        </mxCell>
        <mxCell id="gjBuXh8FQjtO3Kq-rvw9-6" value="&lt;div&gt;$$T_1^{(t−1)}$$&lt;/div&gt;" style="text;html=1;align=center;verticalAlign=middle;whiteSpace=wrap;rounded=0;" parent="gjBuXh8FQjtO3Kq-rvw9-7" vertex="1">
          <mxGeometry x="9.375" y="15.625" width="37.5" height="18.75" as="geometry" />
        </mxCell>
        <mxCell id="gjBuXh8FQjtO3Kq-rvw9-10" value="" style="group;fillColor=none;container=0;" parent="1" vertex="1" connectable="0">
          <mxGeometry x="180" y="454" width="50" height="50" as="geometry" />
        </mxCell>
        <mxCell id="gjBuXh8FQjtO3Kq-rvw9-13" value="" style="shape=image;verticalLabelPosition=bottom;labelBackgroundColor=default;verticalAlign=top;aspect=fixed;imageAspect=0;image=data:image/png,iVBORw0KGgoAAAANSUhEUgAAAEYAAABGCAYAAABxLuKEAAAAAXNSR0IArs4c6QAAAARnQU1BAACxjwv8YQUAAAAJcEhZcwAAEnQAABJ0Ad5mH3gAAAezSURBVHhe7ZpZbBtFGMd3Nm4KtOoRxV6nKQ1tKWehKkhIUEoPIcql8lBReELwgCpiRwVEkeCFU0gIQY/ESQsIhHgot7gRiKOtAIEEqEK0EofKmdbrhASKKG0T7/D/xt9aa3tt7/hI87A/yZ7vmx3vzvznm8u2ERISEhISEhISEhISEhISFMHphJHps9YbQrzILiP/w9v1qM7bOb8IaVwTS6bfZW9CmDBhMn3xR/C0e9itiJRytxBiBbtliSXSTat/0248smP2zLHx1juENAcNIZ/kbGr091bSPovdPEO91spoj72LXYXdF/9LCGMmu76Y4y2ntm8c/IPdhtFwYdCYLWjMRnYL0OnhTCou2fT9nN1n/Yqomkd2q2htm9X926i60CBMThsCNcYVBZHxdTYrF2SFtAxhXlBr2IupYzPYLABR1yUNuYXs4/L4CD3bTsVvUhcbQEMixu6LTkfjHxKGuJ189OSGaPeh/PDRZShlrZKG+JjsaoJ6I4uAWD9YCftMdmumLmHslLXZFcNFyuwiKzn0E7s1geH4AiLvBrKDRhqi5W8UzEdXvXNPzUNJDRsWBV12WBhyLTWiXlEUwnDYCoyVSM/0iuhEsr+zOXGQKO6Ls+rC7rXuZzMPIuCTwR0dp7CrBfZKz9VbP+2hRJWdMi7/JTtomB/CUtxiik/Klfc2oNo9c2XlMN4exFzSy9kluPcci4hpnRsOHVGZGmgPJVcUjJ87VVoFqiCJwq4vJIYrSLBeFu0YxtuobCZlqbmomPFxI0Zpvr6aaEeMW/HinqXQR8ZKdh/Dcr0Yq9NV7AeOrnL39wPPPIBC89GK9bHu9Mucnce9l5TG31YyPUtlBkQrYjL98XxDS5DyObaITbWIQmC5fYrNqmDCXaAMabyk0iKyR+R0Smn3jCPJNpUZkMAVHh6wLnIc8aVypHEAh7qFyvaB5hRKO4q2+H5gB/snRGzzikc9rSMmlXek/CCetNdwVgFu5AhnrDPa8+dBlVmFwBGTF4UQRq6nykCCBBGFKelttPIBNstC4rsNJkwhrmCzBFdkaU4ZVBkBCCRMprejYBNHZHqtG9msC2ztb6M0k4rlz1dWj12yfBfjndCdgAsBATEDlQ0WMabcnDPkp1KaS5Vpip0YBvuVzeBocLq3F/Uw1bknCO4z8KbmjXgyzfUrD8oeZvNxTiuiNfmORcw1VvLgXjzlW/IxN5xNlXRfQrT8qApqctQ8PpfSIKJi85bf5mPyzUdZtTkJF/exGQgtYdyNEibeJeUqUqmCtKRT4ymyOEsx77aRQSiSIFuJ7LOCHNpmzVfCCdGJsrt0JmcCn2meMMVQ5QorKD9jwxf08CpK/SIL1/pR+7eUI4weJVDu9TmlLS3iAF3C/mjQvY8OqKTW2UlLmIN98S4286DSe9mEUPalbJaAct9RA+n0Tf7wwNxOdcEDIlEdRNl1uVi9S+MLuobJWg07FxxR2um+9OIsX/DgVjYDoSVMRBi/sOlliXqXxocqLcJOWbu50ueS756+s86Yb3miQBxhPKsiM5nOCVQEhvcwm2oYYriWWZLFJWwEIqAw8lM2KlEwbxBUUZxpLlOOlEe9DUZ+Qc8Xky8rjVtUWgFVVhrqy3N8aI5f9KCAG3lqSFYjkDAYIsvZRGOtApGoUlkhz0OPzucsBZbyETaxz3AujyXtk9lVoAGb2CxL1pGB5xI8f49X+BJxhDgplxoplVahhslXLBvd3FVwIOvotr9jMw+W8tmUUmXjycxHKhOMpGLnUxpNpLerjApo7J7z0PNwaPyHbAyr11WmB1x/gs2KBBbG2xtjrcdG7VRH2S243RtfRym67BmV4aEtkfnWe69q6JR1wUlafcWJD15HabovplIdtCLGW0mM2fe92/gCzNx4FtJ4VfknGFOYucgxx89QaQC0e4Pwm9zoOw+855ZuIRbhxnMg3upowq74JVW9DA/Ez8FZqSvWnX6PsxS0OlEd2FXoRF8Ncww/QMrX2FXQdx6YV1aoF1cIFX5MXWwS2ApsdxxjH14lX3FKx7mSTYXukNQqXA6sQA9DmcWoDkQRBRNzLXOEF0QnTexqD+SuUqZpbMJzriab8HuGG9XY2D2ITeF9KlODhgjjh3e4RaNtU8X6/cfZ1QZnp72oaW4j6cVxbo31ZJ5mrwD3+bV2TNOEIQrnInkt9kPvsNN06NlgFNHSxllaNFUYolAcUKGXG0W90UI0X5j+OUsxE37Dri9Y0a7H3uMVdusCq9FdaJSa9Ce1MC5D/dZqKUV+B+wHunmdlUgXrHY6/Pxs10nTjhyjf2fhXtllVmLoc3WhBiZMGD8yA+2LpBO5GZW4l7OA/BVz0WnsBGaov+NCzClf5Tw5hHuoH9xq5YQK4wUrz6Oozd1k6/xAlunvWI4P7GGXPnsTPvs8uzUzaYQhhrd2znX/pVBu1zy8tW2GE2nFLruUSOTYrLYNo77XdKlp59ss6P8s2DlvINv941AxfqI4wllIE22jRCEmVcS4eJf44pUFu+w9EA/Dx8jEkmmLsxvOpIoYD+X/oSDEm7k092+GZjFZhSn7v5cWM7KTzaYyKYfSUH9srZTmG+yWpZ4NXDUmZcREuzO54RISEhISEhISEhISEhISMvkxjP8BSh4fh58X3M8AAAAASUVORK5CYII=;" parent="1" vertex="1">
          <mxGeometry x="169.5" y="346.5" width="71" height="71" as="geometry" />
        </mxCell>
        <mxCell id="gjBuXh8FQjtO3Kq-rvw9-15" value="" style="shape=image;verticalLabelPosition=bottom;labelBackgroundColor=default;verticalAlign=top;aspect=fixed;imageAspect=0;image=data:image/png,iVBORw0KGgoAAAANSUhEUgAAAEgAAABICAYAAABV7bNHAAAAAXNSR0IArs4c6QAAAARnQU1BAACxjwv8YQUAAAAJcEhZcwAAEnQAABJ0Ad5mH3gAAAfmSURBVHhe7ZprjBNVFMfvnW7b3UVREdjtbpGHy25bBI2P+IgKRsVgIhqMfjG+YozGR/ALGsUoCQGNj6gRFRMjxigmfvCdoAYN+NZERYVtFwggLN1dUVSCu9vH3us5t2fKtJ1OZ6btUs38kuk958x0euc/575myjw8PDw8PDw8PDw8PDw8Gg1O5bjTlorO8TF2nWRsLrg/DATjD2O8M9U9T3LfT2jrSCkfHwgm7iV3XBlXgdpGumf6fL5d5FaHlMOS81UDgfhqitQFjcq6E0pFk0ZxIHNeSQbiHDetiZ8IofW053U9jhv45+XiRXDeCjtXdaSjMixikyhac+qWQR2p6FNw9nvINbILLvxksiuCApCJTW0VVDnLuZwF5fUUVuTErD01P2lHOnIunPYrcgsYk3LuUDCxldyKhNKR7Zzx2WiXE8AoYD1EqukJi+72p9CxXkyuK/TzVbpw4+8Se+A7M8muiqr7oI7hOdOwggWVFCJSrThOyAkoHyIXmYH1mSVnHUe+a6oSCPqZA6xJ7CU3h2Sbk819feSNG8lAYiUKxSW/lkJsNBP8a6o4pY1cV7huYoVpLfdCBaeTUzP033DTtxjr5+b7Oq6+2JGKfAfD7FloZ/w8dID3DqodLulMxa6RXL4pJdsEE8aLKFw1eZGkPJwMJo5VtkPcNTESB++MXXGwsoVZdwTBhWoGnLMFdNxHakcZ9HPhFkpF3qVwCb6M6FQG58eo0gWOBYIJ3xoyS8BlApl54AJewAtBu1yqDwQSa3AfbpIznCIs1L9jxtiYmImjJNqc88Xljt03oS8Jx61FG/rLv1XQIa7btuB80aC/90MVJPR98LGfS/kBmFfBFeQ6SSmHIM3blV2BSoIaCaWjS+Ggp9Eud3y+zkwuGAwkNqugTRxl0HQ5vZlMViwO8QZ+QC07QZjbUBy4g2nJ5JlW4sDkcitu5DIh2Q1YwoV9rwIWwFrsGV2YjtEoLVcKgX5S9T8a45tA0AdUsB7gndA3CtUEs3OiDxfzHrll6RiNdKsyFdmA32kfjl6odpig/w40t2cpVBHbGVR8AaHR6JVk1gXMCsiOxeSWR+N9oVTPCsjQRcptYmWb0NjYGKzhAM7uUqUNHHfSMBR/gyXX2DsqUAPgnF9jCaIvVQGbwE17EMsTAj5bjzyGWrbvJtM2tgSC/uEOMhnMU2AxmgOzCjtJchUwaq0NpWN3k2sLOKd6pAGiq87WDvAb50OxEu1e3pvGElIcR61v0a5EWIRbyLSk4iiB6M0L7vQIXEzrJNE1sTnrtxo234ImcjXZtgj/M7tT+Jv60a40ek0+HAkFAjyJdqVji8l3FUIshiXR+8q2wFETg4XOo1ge1HYeworB6PSy2lGElThYQdzCI7EuCin6J+zYD7fgTrRVZqYiO9SOIiBjE27FKUDj08iyxGEfxAUZCpjg3VJQSSk/r1Rpfb/wyRIBYD33vL4fJoBdupjGDXb2QDN6sfh31FMFEcEnkzbhE8iwxJlAUi4kyxQYScoOsQheIMzER7Sx3EOwsJidWwoUoS5eyji5BcAdmj8QTNxO7hHwqUKW/x5KR/ZRxBKYyA6RaYktgXARqQzOL1ClQ2COshnFQRvWW839Lb070RbZpo1YmgFixyBTbkUbmvI6FA23wUD8M3VAGTjjYZVtmWiF51FiCxmW2BLIuMKGvuF0Mm2hhOE8l1lSri5sGjJMhimQKS9hCRd9swpYoAsI58xlnmQbrSaa+4PbfybTEod9EGYAL5n+H6lcIXrWIOqYYGI5uQRfRkZZYGHq6PEH9GMxekuCQ/QVxjq4wYFA8jUyWNtIzwwyy9KR7sm/rhFZZno8iKZW2lYMtfTlmrcD+rXeg5BBH5NbFbYFgjuDr1kSaPt82m4cNdAuj/Ylfvr9wy2DrfFfVciIkD1kVcQsOyuRDMYvIxNuVkS9tYUBAp8wOMLxDxekrMWTOv04NxdXK2BE2wL916loY7MTWfkH2jBZ6d7fHDedZxXjqvKwGj4E3ywVRhoWipzNx2K8BIIOeR0sbks685I+iLNLkv74J+RVxHEnjUD6TpRZXvqQHkXRt3EERYC7cBO5VixzIg7iSiBkoLV3L2YHzFXOoJAp+E6eTNfg4hdFgHM9RyFFp4jO1jMEPu5TQQOdmZ4FZCL4yvsJsm1T1/TPVx5W2DCnOUcFXVLSVAxoUszrD/b9Qm4emLP9CdOS48F8G8RZkos6w3UG2QFm4ANYQiXPhn7rCxV0CWYrbrBGeIxC67nUTsOYmTgIiQMjprhflS6oewdafOfxjQTMbfaQW1f031bCumRcRhiz5gHrqx+Z5GopAEuZFSpYQ2Dusw0uL4Z2wwuEmP21rgTJDsEIWfUfDtrEvAm+bOYw2tWIg4ybQEbaRyNLNI0/CabpEkTLZMO5B2jOaRddU7Ss/ze0qxUHOSoClaO4KTq5wJDsnswzvgPkMsHZ5YP++AZyXdNQAiHQd8C6jZ+ENqj1KsyOb1Q7ighlIpdywZfDFZRMSoXQYoPN20wfuDml4QRCjJlULovMOn4E3+IOBBIV38japa7zILcYRWlPRQv+rIlMkbHCf2tI9gh+B7daioM0ZAYh0NTyfwY1y6JazHHs0JAZhCQDCfW29WjTsAI1Cg3bxJByHbER0ZSZOqjtzA/vteY/n0EwKbTzHMjDw8PDw8PDw8PDw8PD4/8CY/8CJCFHjmmffwkAAAAASUVORK5CYII=;" parent="1" vertex="1">
          <mxGeometry x="584" y="346.5" width="72" height="72" as="geometry" />
        </mxCell>
        <mxCell id="gjBuXh8FQjtO3Kq-rvw9-16" value="" style="shape=image;verticalLabelPosition=bottom;labelBackgroundColor=default;verticalAlign=top;aspect=fixed;imageAspect=0;image=data:image/png,iVBORw0KGgoAAAANSUhEUgAAADAAAAAwCAYAAABXAvmHAAAAAXNSR0IArs4c6QAAAARnQU1BAACxjwv8YQUAAAAJcEhZcwAAEnQAABJ0Ad5mH3gAAATeSURBVGhD7ZddaBxVFMeTTUjQih9olVao0EJIdjckRasprfjgQ6UKWqX4qtBCW6wF8aXaii2oT33oB21BRBH6UqQ+SC34oA9KETFoPjYJqSgFsbYGWmwaIWyS/v93zp3emb1z587sbnzZH0zOued+nXPumTvZthYt6qNdZFMplUq32tvb74a6d3x8/ERgbQx1BwDnDsG596SZl30I7JjomagrgHK5vCSqYmFhoTw5OVmhrvtg64HtEvXBwcGV1Wr1GnUbCCKzP5kmxB3W+G5szP8Xc+6jMjQ0dNfs7OycsoKsQXgNHhgYeBSZ/FOaETI4/wbEceq2OcVi8blCoXCB+tLS0p5KpXJKdaTg3DyeHWzwyOjoaGIJuNDZdwWMMRshLgatgLQEuRaLlEvWo43jE4AGp3EPknVTms45BZEh2GiX6Twn1+t8ViYmJmZlz+/YjifTCQfz6evrK4kpF1hDbV4vuKZvaJ/EFCGSWT3IN+McbxuLEiiiBNR1SpLWw/yPIXYELee4RL9qSsgHZGVTUkYISmCCm+kNk8aif+fi4uKL0kwchw/lE5TY92dlMAgjQudhDDyIK+wArrAPxMxFf4EYDFpRkjIWx5VBE9c4MzizPzwBOk9pOk8weP38/PxKaWpedjnDzcwNfdFr2uaa+5n9KgDTgJf3KVFDpqenZ7iA8XwpXV4gOetQKq9L04r2AeOeVQYLZhC9vb0PUhZ6enoeUhaho6PjR1FzgzL8QlTF2NjY73gtPpOmE4z7lhL3wGvKEEMH0dnZOUNZ6Orq+odKd3f3CkpiO0LYvhI1FZThdkrM2aYMKdj28w04fAeGh4fnzCPiouYD0wtBTybOiUzEcP4dkZFSSaPmGuVklNED0gxxLSpB/iVNhR6vE4CSWKM6BP6fpZ1H3a/H+I9UR0as34GRkZEbpsMu54WjeFbBoa1BM0Dm7aaOD9tlHQwf/U8ix6BcfqVO+vv7t+NK3yDNVKwB+KKdAY+J6bzIEDh4OpaACsZvoS1mV6DvLG6tn7iumJyEAfhOIMjQmB6PDefw0m6DPKQ6EzCcLWH8N6LXYAbFPbDXVWlaKdiyYBLv5+ccGSpTR1mshTPq9oJtP6WLtCA13FPvi3UfRiDfqw4LkRKKn4ItOCz4OCX78OPmD2UM6IKD6hdVEgj2fVG9MPbfLLIGFYDpKDL8qqgu3hYZAud3wsHIS5zAgEhf/uYfJPc3keqHDvZ7kjKSYfMEcLU9jdvhB2kqENxunMBJ28k0E8OvD/Go74X2ocaReBnZaGYA3D++ftwns7/mGmUnjsf55uMkPhW1oeRJXmom4ewnEOuoo3yeoSR5TwHrXcc691NHmb4FfQbP56oT2NbVgdn6MjthZilvECSe7Wq1unpqauqKNCPI2IvYb1NguUMuBxoVhA+u7JOGZZDwQ4VyuITNzoipbpoWAEE9H4XDb0qzBgRUxLdhUpqZ0c7jXVmFK119D+I09Pj5nySc5ofq3cASkKfMjBM+h/mviF5DQwOIY5aZbxCYw49n+LKmzWtqAMQnCHOMwU2Mv1f0RJoeANEO2gKwOe97WssKHbU5m2T3pa5fZI0AL/1/oubifw8A1/ARSpxC+G9KFpat1tLKBCfxNb4Zz0vTm2U7AWT6JVGtoN/nx1CLFi0itLXdBjurZ4hoK8mRAAAAAElFTkSuQmCC;" parent="1" vertex="1">
          <mxGeometry x="74" y="357" width="50" height="50" as="geometry" />
        </mxCell>
        <mxCell id="gjBuXh8FQjtO3Kq-rvw9-17" value="设备\(U_1\)" style="text;whiteSpace=wrap;fontSize=18;" parent="1" vertex="1">
          <mxGeometry x="16" y="326" width="70" height="30" as="geometry" />
        </mxCell>
        <mxCell id="gjBuXh8FQjtO3Kq-rvw9-11" value="" style="ellipse;whiteSpace=wrap;html=1;fillColor=#f0a30a;strokeColor=#BD7000;fontColor=#000000;" parent="1" vertex="1">
          <mxGeometry x="180" y="454" width="50" height="50" as="geometry" />
        </mxCell>
        <mxCell id="gjBuXh8FQjtO3Kq-rvw9-12" value="&lt;div&gt;$$T_1^{(t)}$$&lt;/div&gt;" style="text;html=1;align=center;verticalAlign=middle;whiteSpace=wrap;rounded=0;" parent="1" vertex="1">
          <mxGeometry x="189.375" y="469.625" width="37.5" height="18.75" as="geometry" />
        </mxCell>
        <mxCell id="gjBuXh8FQjtO3Kq-rvw9-33" value="&lt;font style=&quot;font-size: 10px;&quot;&gt;样本集&lt;/font&gt;" style="shape=cylinder3;whiteSpace=wrap;html=1;boundedLbl=1;backgroundOutline=1;size=8.79998779296875;" parent="1" vertex="1">
          <mxGeometry x="44" y="420" width="40" height="30.5" as="geometry" />
        </mxCell>
        <mxCell id="gjBuXh8FQjtO3Kq-rvw9-35" value="服务器\(S\)" style="text;whiteSpace=wrap;fontSize=18;" parent="1" vertex="1">
          <mxGeometry x="235.5" y="43" width="70" height="30" as="geometry" />
        </mxCell>
        <mxCell id="gjBuXh8FQjtO3Kq-rvw9-36" value="" style="shape=image;verticalLabelPosition=bottom;labelBackgroundColor=default;verticalAlign=top;aspect=fixed;imageAspect=0;image=data:image/png,iVBORw0KGgoAAAANSUhEUgAAADAAAAAwCAYAAABXAvmHAAAAAXNSR0IArs4c6QAAAARnQU1BAACxjwv8YQUAAAAJcEhZcwAAEnQAABJ0Ad5mH3gAAATeSURBVGhD7ZddaBxVFMeTTUjQih9olVao0EJIdjckRasprfjgQ6UKWqX4qtBCW6wF8aXaii2oT33oB21BRBH6UqQ+SC34oA9KETFoPjYJqSgFsbYGWmwaIWyS/v93zp3emb1z587sbnzZH0zOued+nXPumTvZthYt6qNdZFMplUq32tvb74a6d3x8/ERgbQx1BwDnDsG596SZl30I7JjomagrgHK5vCSqYmFhoTw5OVmhrvtg64HtEvXBwcGV1Wr1GnUbCCKzP5kmxB3W+G5szP8Xc+6jMjQ0dNfs7OycsoKsQXgNHhgYeBSZ/FOaETI4/wbEceq2OcVi8blCoXCB+tLS0p5KpXJKdaTg3DyeHWzwyOjoaGIJuNDZdwWMMRshLgatgLQEuRaLlEvWo43jE4AGp3EPknVTms45BZEh2GiX6Twn1+t8ViYmJmZlz+/YjifTCQfz6evrK4kpF1hDbV4vuKZvaJ/EFCGSWT3IN+McbxuLEiiiBNR1SpLWw/yPIXYELee4RL9qSsgHZGVTUkYISmCCm+kNk8aif+fi4uKL0kwchw/lE5TY92dlMAgjQudhDDyIK+wArrAPxMxFf4EYDFpRkjIWx5VBE9c4MzizPzwBOk9pOk8weP38/PxKaWpedjnDzcwNfdFr2uaa+5n9KgDTgJf3KVFDpqenZ7iA8XwpXV4gOetQKq9L04r2AeOeVQYLZhC9vb0PUhZ6enoeUhaho6PjR1FzgzL8QlTF2NjY73gtPpOmE4z7lhL3wGvKEEMH0dnZOUNZ6Orq+odKd3f3CkpiO0LYvhI1FZThdkrM2aYMKdj28w04fAeGh4fnzCPiouYD0wtBTybOiUzEcP4dkZFSSaPmGuVklNED0gxxLSpB/iVNhR6vE4CSWKM6BP6fpZ1H3a/H+I9UR0as34GRkZEbpsMu54WjeFbBoa1BM0Dm7aaOD9tlHQwf/U8ix6BcfqVO+vv7t+NK3yDNVKwB+KKdAY+J6bzIEDh4OpaACsZvoS1mV6DvLG6tn7iumJyEAfhOIMjQmB6PDefw0m6DPKQ6EzCcLWH8N6LXYAbFPbDXVWlaKdiyYBLv5+ccGSpTR1mshTPq9oJtP6WLtCA13FPvi3UfRiDfqw4LkRKKn4ItOCz4OCX78OPmD2UM6IKD6hdVEgj2fVG9MPbfLLIGFYDpKDL8qqgu3hYZAud3wsHIS5zAgEhf/uYfJPc3keqHDvZ7kjKSYfMEcLU9jdvhB2kqENxunMBJ28k0E8OvD/Go74X2ocaReBnZaGYA3D++ftwns7/mGmUnjsf55uMkPhW1oeRJXmom4ewnEOuoo3yeoSR5TwHrXcc691NHmb4FfQbP56oT2NbVgdn6MjthZilvECSe7Wq1unpqauqKNCPI2IvYb1NguUMuBxoVhA+u7JOGZZDwQ4VyuITNzoipbpoWAEE9H4XDb0qzBgRUxLdhUpqZ0c7jXVmFK119D+I09Pj5nySc5ofq3cASkKfMjBM+h/mviF5DQwOIY5aZbxCYw49n+LKmzWtqAMQnCHOMwU2Mv1f0RJoeANEO2gKwOe97WssKHbU5m2T3pa5fZI0AL/1/oubifw8A1/ARSpxC+G9KFpat1tLKBCfxNb4Zz0vTm2U7AWT6JVGtoN/nx1CLFi0itLXdBjurZ4hoK8mRAAAAAElFTkSuQmCC;" parent="1" vertex="1">
          <mxGeometry x="452" y="70" width="60" height="60" as="geometry" />
        </mxCell>
        <mxCell id="gjBuXh8FQjtO3Kq-rvw9-41" style="edgeStyle=orthogonalEdgeStyle;rounded=0;orthogonalLoop=1;jettySize=auto;html=1;exitX=0.5;exitY=1;exitDx=0;exitDy=0;exitPerimeter=0;entryX=0;entryY=0.5;entryDx=0;entryDy=0;" parent="1" source="gjBuXh8FQjtO3Kq-rvw9-37" target="gjBuXh8FQjtO3Kq-rvw9-38" edge="1">
          <mxGeometry relative="1" as="geometry" />
        </mxCell>
        <mxCell id="gjBuXh8FQjtO3Kq-rvw9-37" value="&lt;font style=&quot;font-size: 10px;&quot;&gt;样本集&lt;/font&gt;" style="shape=cylinder3;whiteSpace=wrap;html=1;boundedLbl=1;backgroundOutline=1;size=8.79998779296875;" parent="1" vertex="1">
          <mxGeometry x="149.38" y="423.5" width="40" height="30.5" as="geometry" />
        </mxCell>
        <mxCell id="gjBuXh8FQjtO3Kq-rvw9-44" value="" style="endArrow=classic;html=1;rounded=0;exitX=0.675;exitY=-0.002;exitDx=0;exitDy=0;exitPerimeter=0;entryX=0.221;entryY=0.995;entryDx=0;entryDy=0;entryPerimeter=0;fillColor=#f0a30a;strokeColor=#FF8000;strokeWidth=3;" parent="1" source="gjBuXh8FQjtO3Kq-rvw9-2" target="gjBuXh8FQjtO3Kq-rvw9-1" edge="1">
          <mxGeometry width="50" height="50" relative="1" as="geometry">
            <mxPoint x="183.13" y="320" as="sourcePoint" />
            <mxPoint x="233.13" y="270" as="targetPoint" />
          </mxGeometry>
        </mxCell>
        <mxCell id="gjBuXh8FQjtO3Kq-rvw9-45" value="" style="endArrow=classic;html=1;rounded=0;exitX=0.308;exitY=1.005;exitDx=0;exitDy=0;exitPerimeter=0;entryX=0.788;entryY=0.007;entryDx=0;entryDy=0;entryPerimeter=0;strokeWidth=3;" parent="1" source="gjBuXh8FQjtO3Kq-rvw9-1" target="gjBuXh8FQjtO3Kq-rvw9-2" edge="1">
          <mxGeometry width="50" height="50" relative="1" as="geometry">
            <mxPoint x="390" y="320" as="sourcePoint" />
            <mxPoint x="440" y="270" as="targetPoint" />
          </mxGeometry>
        </mxCell>
        <mxCell id="gjBuXh8FQjtO3Kq-rvw9-46" value="&lt;b&gt;···&lt;/b&gt;" style="text;html=1;align=center;verticalAlign=middle;whiteSpace=wrap;rounded=0;" parent="1" vertex="1">
          <mxGeometry x="3" y="461" width="60" height="40" as="geometry" />
        </mxCell>
        <mxCell id="gjBuXh8FQjtO3Kq-rvw9-52" value="&lt;font style=&quot;font-size: 16px;&quot;&gt;SNN本地训练&lt;/font&gt;" style="text;html=1;align=center;verticalAlign=middle;whiteSpace=wrap;rounded=0;" parent="1" vertex="1">
          <mxGeometry x="177.38" y="400" width="100.62" height="30" as="geometry" />
        </mxCell>
        <mxCell id="gjBuXh8FQjtO3Kq-rvw9-53" value="&lt;p class=&quot;MsoNormal&quot;&gt;&lt;font color=&quot;#ff8000&quot;&gt;&lt;b&gt;$$M_1^{(t)}$$&lt;/b&gt;&lt;/font&gt;&lt;/p&gt;" style="text;html=1;align=center;verticalAlign=middle;whiteSpace=wrap;rounded=0;" parent="1" vertex="1">
          <mxGeometry x="200" y="240" width="60" height="30" as="geometry" />
        </mxCell>
        <mxCell id="gjBuXh8FQjtO3Kq-rvw9-56" value="&lt;p class=&quot;MsoNormal&quot;&gt;&lt;b style=&quot;&quot;&gt;$$M_G^{(t)}$$&lt;/b&gt;&lt;/p&gt;" style="text;html=1;align=center;verticalAlign=middle;whiteSpace=wrap;rounded=0;" parent="1" vertex="1">
          <mxGeometry x="280" y="246.25" width="60" height="30" as="geometry" />
        </mxCell>
        <mxCell id="gjBuXh8FQjtO3Kq-rvw9-57" value="&lt;p class=&quot;MsoNormal&quot;&gt;&lt;font color=&quot;#ff8000&quot;&gt;&lt;b&gt;$$M_1^{(t)}$$&lt;/b&gt;&lt;/font&gt;&lt;/p&gt;" style="text;html=1;align=center;verticalAlign=middle;whiteSpace=wrap;rounded=0;" parent="1" vertex="1">
          <mxGeometry x="260" y="149" width="60" height="30" as="geometry" />
        </mxCell>
        <mxCell id="gjBuXh8FQjtO3Kq-rvw9-59" value="" style="shape=flexArrow;endArrow=classic;html=1;rounded=0;entryX=1;entryY=1;entryDx=0;entryDy=0;fillColor=#60a917;strokeColor=#2D7600;exitX=0;exitY=1;exitDx=0;exitDy=0;" parent="1" source="gjBuXh8FQjtO3Kq-rvw9-58" target="gjBuXh8FQjtO3Kq-rvw9-58" edge="1">
          <mxGeometry width="50" height="50" relative="1" as="geometry">
            <mxPoint x="495" y="480" as="sourcePoint" />
            <mxPoint x="595" y="480" as="targetPoint" />
          </mxGeometry>
        </mxCell>
        <mxCell id="gjBuXh8FQjtO3Kq-rvw9-60" value="" style="group" parent="1" vertex="1" connectable="0">
          <mxGeometry x="489" y="454" width="60" height="50" as="geometry" />
        </mxCell>
        <mxCell id="gjBuXh8FQjtO3Kq-rvw9-61" value="" style="ellipse;whiteSpace=wrap;html=1;" parent="gjBuXh8FQjtO3Kq-rvw9-60" vertex="1">
          <mxGeometry width="50" height="50" as="geometry" />
        </mxCell>
        <mxCell id="gjBuXh8FQjtO3Kq-rvw9-62" value="&lt;div&gt;$$T_1^{(t−1)}$$&lt;/div&gt;" style="text;html=1;align=center;verticalAlign=middle;whiteSpace=wrap;rounded=0;" parent="gjBuXh8FQjtO3Kq-rvw9-60" vertex="1">
          <mxGeometry x="9.375" y="15.625" width="37.5" height="18.75" as="geometry" />
        </mxCell>
        <mxCell id="gjBuXh8FQjtO3Kq-rvw9-63" value="" style="group;fillColor=none;container=0;" parent="1" vertex="1" connectable="0">
          <mxGeometry x="595" y="454" width="50" height="50" as="geometry" />
        </mxCell>
        <mxCell id="gjBuXh8FQjtO3Kq-rvw9-65" value="" style="shape=image;verticalLabelPosition=bottom;labelBackgroundColor=default;verticalAlign=top;aspect=fixed;imageAspect=0;image=data:image/png,iVBORw0KGgoAAAANSUhEUgAAADAAAAAwCAYAAABXAvmHAAAAAXNSR0IArs4c6QAAAARnQU1BAACxjwv8YQUAAAAJcEhZcwAAEnQAABJ0Ad5mH3gAAATeSURBVGhD7ZddaBxVFMeTTUjQih9olVao0EJIdjckRasprfjgQ6UKWqX4qtBCW6wF8aXaii2oT33oB21BRBH6UqQ+SC34oA9KETFoPjYJqSgFsbYGWmwaIWyS/v93zp3emb1z587sbnzZH0zOued+nXPumTvZthYt6qNdZFMplUq32tvb74a6d3x8/ERgbQx1BwDnDsG596SZl30I7JjomagrgHK5vCSqYmFhoTw5OVmhrvtg64HtEvXBwcGV1Wr1GnUbCCKzP5kmxB3W+G5szP8Xc+6jMjQ0dNfs7OycsoKsQXgNHhgYeBSZ/FOaETI4/wbEceq2OcVi8blCoXCB+tLS0p5KpXJKdaTg3DyeHWzwyOjoaGIJuNDZdwWMMRshLgatgLQEuRaLlEvWo43jE4AGp3EPknVTms45BZEh2GiX6Twn1+t8ViYmJmZlz+/YjifTCQfz6evrK4kpF1hDbV4vuKZvaJ/EFCGSWT3IN+McbxuLEiiiBNR1SpLWw/yPIXYELee4RL9qSsgHZGVTUkYISmCCm+kNk8aif+fi4uKL0kwchw/lE5TY92dlMAgjQudhDDyIK+wArrAPxMxFf4EYDFpRkjIWx5VBE9c4MzizPzwBOk9pOk8weP38/PxKaWpedjnDzcwNfdFr2uaa+5n9KgDTgJf3KVFDpqenZ7iA8XwpXV4gOetQKq9L04r2AeOeVQYLZhC9vb0PUhZ6enoeUhaho6PjR1FzgzL8QlTF2NjY73gtPpOmE4z7lhL3wGvKEEMH0dnZOUNZ6Orq+odKd3f3CkpiO0LYvhI1FZThdkrM2aYMKdj28w04fAeGh4fnzCPiouYD0wtBTybOiUzEcP4dkZFSSaPmGuVklNED0gxxLSpB/iVNhR6vE4CSWKM6BP6fpZ1H3a/H+I9UR0as34GRkZEbpsMu54WjeFbBoa1BM0Dm7aaOD9tlHQwf/U8ix6BcfqVO+vv7t+NK3yDNVKwB+KKdAY+J6bzIEDh4OpaACsZvoS1mV6DvLG6tn7iumJyEAfhOIMjQmB6PDefw0m6DPKQ6EzCcLWH8N6LXYAbFPbDXVWlaKdiyYBLv5+ccGSpTR1mshTPq9oJtP6WLtCA13FPvi3UfRiDfqw4LkRKKn4ItOCz4OCX78OPmD2UM6IKD6hdVEgj2fVG9MPbfLLIGFYDpKDL8qqgu3hYZAud3wsHIS5zAgEhf/uYfJPc3keqHDvZ7kjKSYfMEcLU9jdvhB2kqENxunMBJ28k0E8OvD/Go74X2ocaReBnZaGYA3D++ftwns7/mGmUnjsf55uMkPhW1oeRJXmom4ewnEOuoo3yeoSR5TwHrXcc691NHmb4FfQbP56oT2NbVgdn6MjthZilvECSe7Wq1unpqauqKNCPI2IvYb1NguUMuBxoVhA+u7JOGZZDwQ4VyuITNzoipbpoWAEE9H4XDb0qzBgRUxLdhUpqZ0c7jXVmFK119D+I09Pj5nySc5ofq3cASkKfMjBM+h/mviF5DQwOIY5aZbxCYw49n+LKmzWtqAMQnCHOMwU2Mv1f0RJoeANEO2gKwOe97WssKHbU5m2T3pa5fZI0AL/1/oubifw8A1/ARSpxC+G9KFpat1tLKBCfxNb4Zz0vTm2U7AWT6JVGtoN/nx1CLFi0itLXdBjurZ4hoK8mRAAAAAElFTkSuQmCC;" parent="1" vertex="1">
          <mxGeometry x="489" y="357" width="50" height="50" as="geometry" />
        </mxCell>
        <mxCell id="gjBuXh8FQjtO3Kq-rvw9-66" value="设备\(U_k\)" style="text;whiteSpace=wrap;fontSize=18;" parent="1" vertex="1">
          <mxGeometry x="431" y="326" width="70" height="30" as="geometry" />
        </mxCell>
        <mxCell id="gjBuXh8FQjtO3Kq-rvw9-67" value="" style="ellipse;whiteSpace=wrap;html=1;fillColor=#60a917;fontColor=#ffffff;strokeColor=#2D7600;" parent="1" vertex="1">
          <mxGeometry x="595" y="454" width="50" height="50" as="geometry" />
        </mxCell>
        <mxCell id="gjBuXh8FQjtO3Kq-rvw9-68" value="&lt;div&gt;$$T_1^{(t)}$$&lt;/div&gt;" style="text;html=1;align=center;verticalAlign=middle;whiteSpace=wrap;rounded=0;" parent="1" vertex="1">
          <mxGeometry x="604.375" y="469.625" width="37.5" height="18.75" as="geometry" />
        </mxCell>
        <mxCell id="gjBuXh8FQjtO3Kq-rvw9-69" value="&lt;font style=&quot;font-size: 10px;&quot;&gt;样本集&lt;/font&gt;" style="shape=cylinder3;whiteSpace=wrap;html=1;boundedLbl=1;backgroundOutline=1;size=8.79998779296875;" parent="1" vertex="1">
          <mxGeometry x="459" y="420" width="40" height="30.5" as="geometry" />
        </mxCell>
        <mxCell id="gjBuXh8FQjtO3Kq-rvw9-83" style="edgeStyle=orthogonalEdgeStyle;rounded=0;orthogonalLoop=1;jettySize=auto;html=1;exitX=0.5;exitY=1;exitDx=0;exitDy=0;exitPerimeter=0;entryX=0.007;entryY=0.586;entryDx=0;entryDy=0;entryPerimeter=0;" parent="1" source="gjBuXh8FQjtO3Kq-rvw9-84" target="gjBuXh8FQjtO3Kq-rvw9-105" edge="1">
          <mxGeometry relative="1" as="geometry">
            <mxPoint x="607.4019999999998" y="599.2964999999999" as="targetPoint" />
            <Array as="points">
              <mxPoint x="584" y="599" />
            </Array>
          </mxGeometry>
        </mxCell>
        <mxCell id="gjBuXh8FQjtO3Kq-rvw9-84" value="&lt;font style=&quot;font-size: 10px;&quot;&gt;样本集&lt;/font&gt;" style="shape=cylinder3;whiteSpace=wrap;html=1;boundedLbl=1;backgroundOutline=1;size=8.79998779296875;" parent="1" vertex="1">
          <mxGeometry x="564.38" y="423.5" width="40" height="30.5" as="geometry" />
        </mxCell>
        <mxCell id="gjBuXh8FQjtO3Kq-rvw9-85" value="" style="endArrow=classic;html=1;rounded=0;exitX=0.675;exitY=-0.002;exitDx=0;exitDy=0;exitPerimeter=0;entryX=0.75;entryY=1;entryDx=0;entryDy=0;fillColor=#60a917;strokeColor=#00CC00;strokeWidth=3;" parent="1" source="gjBuXh8FQjtO3Kq-rvw9-58" target="gjBuXh8FQjtO3Kq-rvw9-1" edge="1">
          <mxGeometry width="50" height="50" relative="1" as="geometry">
            <mxPoint x="660.13" y="306.25" as="sourcePoint" />
            <mxPoint x="780" y="195.25" as="targetPoint" />
          </mxGeometry>
        </mxCell>
        <mxCell id="gjBuXh8FQjtO3Kq-rvw9-86" value="" style="endArrow=classic;html=1;rounded=0;exitX=0.849;exitY=1.005;exitDx=0;exitDy=0;exitPerimeter=0;entryX=0.789;entryY=0.012;entryDx=0;entryDy=0;entryPerimeter=0;strokeWidth=3;" parent="1" source="gjBuXh8FQjtO3Kq-rvw9-1" target="gjBuXh8FQjtO3Kq-rvw9-58" edge="1">
          <mxGeometry width="50" height="50" relative="1" as="geometry">
            <mxPoint x="809" y="197.25" as="sourcePoint" />
            <mxPoint x="917" y="256.25" as="targetPoint" />
          </mxGeometry>
        </mxCell>
        <mxCell id="gjBuXh8FQjtO3Kq-rvw9-87" value="&lt;b&gt;···&lt;/b&gt;" style="text;html=1;align=center;verticalAlign=middle;whiteSpace=wrap;rounded=0;" parent="1" vertex="1">
          <mxGeometry x="418" y="461" width="60" height="40" as="geometry" />
        </mxCell>
        <mxCell id="gjBuXh8FQjtO3Kq-rvw9-88" value="&lt;font style=&quot;font-size: 16px;&quot;&gt;SNN本地训练&lt;/font&gt;" style="text;html=1;align=center;verticalAlign=middle;whiteSpace=wrap;rounded=0;" parent="1" vertex="1">
          <mxGeometry x="591.38" y="400" width="105.62" height="30" as="geometry" />
        </mxCell>
        <mxCell id="gjBuXh8FQjtO3Kq-rvw9-89" value="&lt;p class=&quot;MsoNormal&quot;&gt;&lt;b style=&quot;&quot;&gt;&lt;font color=&quot;#00cc00&quot;&gt;$$M_k^{(t)}$$&lt;/font&gt;&lt;/b&gt;&lt;/p&gt;" style="text;html=1;align=center;verticalAlign=middle;whiteSpace=wrap;rounded=0;" parent="1" vertex="1">
          <mxGeometry x="480" y="246.25" width="60" height="30" as="geometry" />
        </mxCell>
        <mxCell id="gjBuXh8FQjtO3Kq-rvw9-90" value="&lt;p class=&quot;MsoNormal&quot;&gt;&lt;b style=&quot;&quot;&gt;$$M_G^{(t)}$$&lt;/b&gt;&lt;/p&gt;" style="text;html=1;align=center;verticalAlign=middle;whiteSpace=wrap;rounded=0;" parent="1" vertex="1">
          <mxGeometry x="562.87" y="246.25" width="60" height="30" as="geometry" />
        </mxCell>
        <mxCell id="gjBuXh8FQjtO3Kq-rvw9-92" value="&lt;p class=&quot;MsoNormal&quot;&gt;&lt;b style=&quot;&quot;&gt;&lt;font color=&quot;#00cc00&quot;&gt;$$M_k^{(t)}$$&lt;/font&gt;&lt;/b&gt;&lt;/p&gt;" style="text;html=1;align=center;verticalAlign=middle;whiteSpace=wrap;rounded=0;" parent="1" vertex="1">
          <mxGeometry x="303.5" y="149" width="60" height="30" as="geometry" />
        </mxCell>
        <mxCell id="gjBuXh8FQjtO3Kq-rvw9-93" value="&lt;b&gt;···&lt;/b&gt;" style="text;html=1;align=center;verticalAlign=middle;whiteSpace=wrap;rounded=0;" parent="1" vertex="1">
          <mxGeometry x="280" y="144" width="60" height="40" as="geometry" />
        </mxCell>
        <mxCell id="gjBuXh8FQjtO3Kq-rvw9-94" value="" style="endArrow=classic;html=1;rounded=0;entryX=0.636;entryY=0.765;entryDx=0;entryDy=0;entryPerimeter=0;" parent="1" edge="1">
          <mxGeometry width="50" height="50" relative="1" as="geometry">
            <mxPoint x="364" y="166" as="sourcePoint" />
            <mxPoint x="447.8800000000001" y="166.05000000000007" as="targetPoint" />
          </mxGeometry>
        </mxCell>
        <mxCell id="gjBuXh8FQjtO3Kq-rvw9-95" value="&lt;p class=&quot;MsoNormal&quot;&gt;&lt;b style=&quot;&quot;&gt;$$M_G^{(t)}$$&lt;/b&gt;&lt;/p&gt;" style="text;html=1;align=center;verticalAlign=middle;whiteSpace=wrap;rounded=0;" parent="1" vertex="1">
          <mxGeometry x="445" y="149" width="60" height="30" as="geometry" />
        </mxCell>
        <mxCell id="gjBuXh8FQjtO3Kq-rvw9-97" value="&lt;font style=&quot;font-size: 16px;&quot;&gt;DDDWA&lt;/font&gt;&lt;div style=&quot;line-height: 390%; font-size: 16px;&quot;&gt;&lt;font style=&quot;font-size: 16px;&quot;&gt;数据驱动的自适应加权聚合方法&lt;/font&gt;&lt;/div&gt;" style="text;html=1;align=center;verticalAlign=middle;whiteSpace=wrap;rounded=0;" parent="1" vertex="1">
          <mxGeometry x="281" y="165" width="240" height="30" as="geometry" />
        </mxCell>
        <mxCell id="gjBuXh8FQjtO3Kq-rvw9-98" value="" style="shape=image;verticalLabelPosition=bottom;labelBackgroundColor=default;verticalAlign=top;aspect=fixed;imageAspect=0;image=data:image/png,iVBORw0KGgoAAAANSUhEUgAAAEYAAABGCAYAAABxLuKEAAAAAXNSR0IArs4c6QAAAARnQU1BAACxjwv8YQUAAAAJcEhZcwAAEnQAABJ0Ad5mH3gAAAezSURBVHhe7ZpZbBtFGMd3Nm4KtOoRxV6nKQ1tKWehKkhIUEoPIcql8lBReELwgCpiRwVEkeCFU0gIQY/ESQsIhHgot7gRiKOtAIEEqEK0EofKmdbrhASKKG0T7/D/xt9aa3tt7/hI87A/yZ7vmx3vzvznm8u2ERISEhISEhISEhISEhISFMHphJHps9YbQrzILiP/w9v1qM7bOb8IaVwTS6bfZW9CmDBhMn3xR/C0e9itiJRytxBiBbtliSXSTat/0248smP2zLHx1juENAcNIZ/kbGr091bSPovdPEO91spoj72LXYXdF/9LCGMmu76Y4y2ntm8c/IPdhtFwYdCYLWjMRnYL0OnhTCou2fT9nN1n/Yqomkd2q2htm9X926i60CBMThsCNcYVBZHxdTYrF2SFtAxhXlBr2IupYzPYLABR1yUNuYXs4/L4CD3bTsVvUhcbQEMixu6LTkfjHxKGuJ189OSGaPeh/PDRZShlrZKG+JjsaoJ6I4uAWD9YCftMdmumLmHslLXZFcNFyuwiKzn0E7s1geH4AiLvBrKDRhqi5W8UzEdXvXNPzUNJDRsWBV12WBhyLTWiXlEUwnDYCoyVSM/0iuhEsr+zOXGQKO6Ls+rC7rXuZzMPIuCTwR0dp7CrBfZKz9VbP+2hRJWdMi7/JTtomB/CUtxiik/Klfc2oNo9c2XlMN4exFzSy9kluPcci4hpnRsOHVGZGmgPJVcUjJ87VVoFqiCJwq4vJIYrSLBeFu0YxtuobCZlqbmomPFxI0Zpvr6aaEeMW/HinqXQR8ZKdh/Dcr0Yq9NV7AeOrnL39wPPPIBC89GK9bHu9Mucnce9l5TG31YyPUtlBkQrYjL98XxDS5DyObaITbWIQmC5fYrNqmDCXaAMabyk0iKyR+R0Smn3jCPJNpUZkMAVHh6wLnIc8aVypHEAh7qFyvaB5hRKO4q2+H5gB/snRGzzikc9rSMmlXek/CCetNdwVgFu5AhnrDPa8+dBlVmFwBGTF4UQRq6nykCCBBGFKelttPIBNstC4rsNJkwhrmCzBFdkaU4ZVBkBCCRMprejYBNHZHqtG9msC2ztb6M0k4rlz1dWj12yfBfjndCdgAsBATEDlQ0WMabcnDPkp1KaS5Vpip0YBvuVzeBocLq3F/Uw1bknCO4z8KbmjXgyzfUrD8oeZvNxTiuiNfmORcw1VvLgXjzlW/IxN5xNlXRfQrT8qApqctQ8PpfSIKJi85bf5mPyzUdZtTkJF/exGQgtYdyNEibeJeUqUqmCtKRT4ymyOEsx77aRQSiSIFuJ7LOCHNpmzVfCCdGJsrt0JmcCn2meMMVQ5QorKD9jwxf08CpK/SIL1/pR+7eUI4weJVDu9TmlLS3iAF3C/mjQvY8OqKTW2UlLmIN98S4286DSe9mEUPalbJaAct9RA+n0Tf7wwNxOdcEDIlEdRNl1uVi9S+MLuobJWg07FxxR2um+9OIsX/DgVjYDoSVMRBi/sOlliXqXxocqLcJOWbu50ueS756+s86Yb3miQBxhPKsiM5nOCVQEhvcwm2oYYriWWZLFJWwEIqAw8lM2KlEwbxBUUZxpLlOOlEe9DUZ+Qc8Xky8rjVtUWgFVVhrqy3N8aI5f9KCAG3lqSFYjkDAYIsvZRGOtApGoUlkhz0OPzucsBZbyETaxz3AujyXtk9lVoAGb2CxL1pGB5xI8f49X+BJxhDgplxoplVahhslXLBvd3FVwIOvotr9jMw+W8tmUUmXjycxHKhOMpGLnUxpNpLerjApo7J7z0PNwaPyHbAyr11WmB1x/gs2KBBbG2xtjrcdG7VRH2S243RtfRym67BmV4aEtkfnWe69q6JR1wUlafcWJD15HabovplIdtCLGW0mM2fe92/gCzNx4FtJ4VfknGFOYucgxx89QaQC0e4Pwm9zoOw+855ZuIRbhxnMg3upowq74JVW9DA/Ez8FZqSvWnX6PsxS0OlEd2FXoRF8Ncww/QMrX2FXQdx6YV1aoF1cIFX5MXWwS2ApsdxxjH14lX3FKx7mSTYXukNQqXA6sQA9DmcWoDkQRBRNzLXOEF0QnTexqD+SuUqZpbMJzriab8HuGG9XY2D2ITeF9KlODhgjjh3e4RaNtU8X6/cfZ1QZnp72oaW4j6cVxbo31ZJ5mrwD3+bV2TNOEIQrnInkt9kPvsNN06NlgFNHSxllaNFUYolAcUKGXG0W90UI0X5j+OUsxE37Dri9Y0a7H3uMVdusCq9FdaJSa9Ce1MC5D/dZqKUV+B+wHunmdlUgXrHY6/Pxs10nTjhyjf2fhXtllVmLoc3WhBiZMGD8yA+2LpBO5GZW4l7OA/BVz0WnsBGaov+NCzClf5Tw5hHuoH9xq5YQK4wUrz6Oozd1k6/xAlunvWI4P7GGXPnsTPvs8uzUzaYQhhrd2znX/pVBu1zy8tW2GE2nFLruUSOTYrLYNo77XdKlp59ss6P8s2DlvINv941AxfqI4wllIE22jRCEmVcS4eJf44pUFu+w9EA/Dx8jEkmmLsxvOpIoYD+X/oSDEm7k092+GZjFZhSn7v5cWM7KTzaYyKYfSUH9srZTmG+yWpZ4NXDUmZcREuzO54RISEhISEhISEhISEhISMvkxjP8BSh4fh58X3M8AAAAASUVORK5CYII=;" parent="1" vertex="1">
          <mxGeometry x="256" y="81" width="49" height="49" as="geometry" />
        </mxCell>
        <mxCell id="gjBuXh8FQjtO3Kq-rvw9-99" value="" style="shape=image;verticalLabelPosition=bottom;labelBackgroundColor=default;verticalAlign=top;aspect=fixed;imageAspect=0;image=data:image/png,iVBORw0KGgoAAAANSUhEUgAAAEgAAABICAYAAABV7bNHAAAAAXNSR0IArs4c6QAAAARnQU1BAACxjwv8YQUAAAAJcEhZcwAAEnQAABJ0Ad5mH3gAAAfmSURBVHhe7ZprjBNVFMfvnW7b3UVREdjtbpGHy25bBI2P+IgKRsVgIhqMfjG+YozGR/ALGsUoCQGNj6gRFRMjxigmfvCdoAYN+NZERYVtFwggLN1dUVSCu9vH3us5t2fKtJ1OZ6btUs38kuk958x0euc/575myjw8PDw8PDw8PDw8PDw8Gg1O5bjTlorO8TF2nWRsLrg/DATjD2O8M9U9T3LfT2jrSCkfHwgm7iV3XBlXgdpGumf6fL5d5FaHlMOS81UDgfhqitQFjcq6E0pFk0ZxIHNeSQbiHDetiZ8IofW053U9jhv45+XiRXDeCjtXdaSjMixikyhac+qWQR2p6FNw9nvINbILLvxksiuCApCJTW0VVDnLuZwF5fUUVuTErD01P2lHOnIunPYrcgsYk3LuUDCxldyKhNKR7Zzx2WiXE8AoYD1EqukJi+72p9CxXkyuK/TzVbpw4+8Se+A7M8muiqr7oI7hOdOwggWVFCJSrThOyAkoHyIXmYH1mSVnHUe+a6oSCPqZA6xJ7CU3h2Sbk819feSNG8lAYiUKxSW/lkJsNBP8a6o4pY1cV7huYoVpLfdCBaeTUzP033DTtxjr5+b7Oq6+2JGKfAfD7FloZ/w8dID3DqodLulMxa6RXL4pJdsEE8aLKFw1eZGkPJwMJo5VtkPcNTESB++MXXGwsoVZdwTBhWoGnLMFdNxHakcZ9HPhFkpF3qVwCb6M6FQG58eo0gWOBYIJ3xoyS8BlApl54AJewAtBu1yqDwQSa3AfbpIznCIs1L9jxtiYmImjJNqc88Xljt03oS8Jx61FG/rLv1XQIa7btuB80aC/90MVJPR98LGfS/kBmFfBFeQ6SSmHIM3blV2BSoIaCaWjS+Ggp9Eud3y+zkwuGAwkNqugTRxl0HQ5vZlMViwO8QZ+QC07QZjbUBy4g2nJ5JlW4sDkcitu5DIh2Q1YwoV9rwIWwFrsGV2YjtEoLVcKgX5S9T8a45tA0AdUsB7gndA3CtUEs3OiDxfzHrll6RiNdKsyFdmA32kfjl6odpig/w40t2cpVBHbGVR8AaHR6JVk1gXMCsiOxeSWR+N9oVTPCsjQRcptYmWb0NjYGKzhAM7uUqUNHHfSMBR/gyXX2DsqUAPgnF9jCaIvVQGbwE17EMsTAj5bjzyGWrbvJtM2tgSC/uEOMhnMU2AxmgOzCjtJchUwaq0NpWN3k2sLOKd6pAGiq87WDvAb50OxEu1e3pvGElIcR61v0a5EWIRbyLSk4iiB6M0L7vQIXEzrJNE1sTnrtxo234ImcjXZtgj/M7tT+Jv60a40ek0+HAkFAjyJdqVji8l3FUIshiXR+8q2wFETg4XOo1ge1HYeworB6PSy2lGElThYQdzCI7EuCin6J+zYD7fgTrRVZqYiO9SOIiBjE27FKUDj08iyxGEfxAUZCpjg3VJQSSk/r1Rpfb/wyRIBYD33vL4fJoBdupjGDXb2QDN6sfh31FMFEcEnkzbhE8iwxJlAUi4kyxQYScoOsQheIMzER7Sx3EOwsJidWwoUoS5eyji5BcAdmj8QTNxO7hHwqUKW/x5KR/ZRxBKYyA6RaYktgXARqQzOL1ClQ2COshnFQRvWW839Lb070RbZpo1YmgFixyBTbkUbmvI6FA23wUD8M3VAGTjjYZVtmWiF51FiCxmW2BLIuMKGvuF0Mm2hhOE8l1lSri5sGjJMhimQKS9hCRd9swpYoAsI58xlnmQbrSaa+4PbfybTEod9EGYAL5n+H6lcIXrWIOqYYGI5uQRfRkZZYGHq6PEH9GMxekuCQ/QVxjq4wYFA8jUyWNtIzwwyy9KR7sm/rhFZZno8iKZW2lYMtfTlmrcD+rXeg5BBH5NbFbYFgjuDr1kSaPt82m4cNdAuj/Ylfvr9wy2DrfFfVciIkD1kVcQsOyuRDMYvIxNuVkS9tYUBAp8wOMLxDxekrMWTOv04NxdXK2BE2wL916loY7MTWfkH2jBZ6d7fHDedZxXjqvKwGj4E3ywVRhoWipzNx2K8BIIOeR0sbks685I+iLNLkv74J+RVxHEnjUD6TpRZXvqQHkXRt3EERYC7cBO5VixzIg7iSiBkoLV3L2YHzFXOoJAp+E6eTNfg4hdFgHM9RyFFp4jO1jMEPu5TQQOdmZ4FZCL4yvsJsm1T1/TPVx5W2DCnOUcFXVLSVAxoUszrD/b9Qm4emLP9CdOS48F8G8RZkos6w3UG2QFm4ANYQiXPhn7rCxV0CWYrbrBGeIxC67nUTsOYmTgIiQMjprhflS6oewdafOfxjQTMbfaQW1f031bCumRcRhiz5gHrqx+Z5GopAEuZFSpYQ2Dusw0uL4Z2wwuEmP21rgTJDsEIWfUfDtrEvAm+bOYw2tWIg4ybQEbaRyNLNI0/CabpEkTLZMO5B2jOaRddU7Ss/ze0qxUHOSoClaO4KTq5wJDsnswzvgPkMsHZ5YP++AZyXdNQAiHQd8C6jZ+ENqj1KsyOb1Q7ighlIpdywZfDFZRMSoXQYoPN20wfuDml4QRCjJlULovMOn4E3+IOBBIV38japa7zILcYRWlPRQv+rIlMkbHCf2tI9gh+B7daioM0ZAYh0NTyfwY1y6JazHHs0JAZhCQDCfW29WjTsAI1Cg3bxJByHbER0ZSZOqjtzA/vteY/n0EwKbTzHMjDw8PDw8PDw8PDw8PD4/8CY/8CJCFHjmmffwkAAAAASUVORK5CYII=;" parent="1" vertex="1">
          <mxGeometry x="313.5" y="85.5" width="40" height="40" as="geometry" />
        </mxCell>
        <mxCell id="gjBuXh8FQjtO3Kq-rvw9-100" value="&lt;b&gt;···&lt;/b&gt;" style="text;html=1;align=center;verticalAlign=middle;whiteSpace=wrap;rounded=0;" parent="1" vertex="1">
          <mxGeometry x="279.38" y="85.5" width="60" height="40" as="geometry" />
        </mxCell>
        <mxCell id="gjBuXh8FQjtO3Kq-rvw9-101" value="" style="endArrow=classic;html=1;rounded=0;entryX=0.636;entryY=0.765;entryDx=0;entryDy=0;entryPerimeter=0;" parent="1" edge="1">
          <mxGeometry width="50" height="50" relative="1" as="geometry">
            <mxPoint x="361.12" y="104.91" as="sourcePoint" />
            <mxPoint x="445.0000000000001" y="104.96000000000006" as="targetPoint" />
          </mxGeometry>
        </mxCell>
        <mxCell id="gjBuXh8FQjtO3Kq-rvw9-29" value="" style="group" parent="1" vertex="1" connectable="0">
          <mxGeometry x="218" y="529.5" width="200" height="120" as="geometry" />
        </mxCell>
        <mxCell id="gjBuXh8FQjtO3Kq-rvw9-38" value="" style="rounded=1;whiteSpace=wrap;html=1;dashed=1;dashPattern=12 12;" parent="gjBuXh8FQjtO3Kq-rvw9-29" vertex="1">
          <mxGeometry x="-21" y="-14" width="211" height="134" as="geometry" />
        </mxCell>
        <mxCell id="gjBuXh8FQjtO3Kq-rvw9-22" value="" style="whiteSpace=wrap;html=1;aspect=fixed;fillColor=#ffe6cc;strokeColor=#d79b00;" parent="gjBuXh8FQjtO3Kq-rvw9-29" vertex="1">
          <mxGeometry width="40" height="40" as="geometry" />
        </mxCell>
        <mxCell id="gjBuXh8FQjtO3Kq-rvw9-23" value="" style="whiteSpace=wrap;html=1;aspect=fixed;fillColor=#ffe6cc;strokeColor=#d79b00;" parent="gjBuXh8FQjtO3Kq-rvw9-29" vertex="1">
          <mxGeometry x="5" y="6" width="40" height="40" as="geometry" />
        </mxCell>
        <mxCell id="gjBuXh8FQjtO3Kq-rvw9-24" value="" style="whiteSpace=wrap;html=1;aspect=fixed;fillColor=#ffe6cc;strokeColor=#d79b00;" parent="gjBuXh8FQjtO3Kq-rvw9-29" vertex="1">
          <mxGeometry x="11" y="12" width="44" height="44" as="geometry" />
        </mxCell>
        <mxCell id="gjBuXh8FQjtO3Kq-rvw9-26" value="" style="whiteSpace=wrap;html=1;aspect=fixed;fillColor=#ffe6cc;strokeColor=#d79b00;" parent="gjBuXh8FQjtO3Kq-rvw9-29" vertex="1">
          <mxGeometry x="17" y="18" width="44" height="44" as="geometry" />
        </mxCell>
        <mxCell id="gjBuXh8FQjtO3Kq-rvw9-39" value="&lt;font style=&quot;font-size: 16px;&quot;&gt;新任务&lt;/font&gt;&lt;div style=&quot;font-size: 16px;&quot;&gt;&lt;font style=&quot;font-size: 16px;&quot;&gt;数据集&lt;/font&gt;&lt;/div&gt;" style="text;html=1;align=center;verticalAlign=middle;whiteSpace=wrap;rounded=0;" parent="gjBuXh8FQjtO3Kq-rvw9-29" vertex="1">
          <mxGeometry x="-4" y="76" width="70" height="30" as="geometry" />
        </mxCell>
        <mxCell id="gjBuXh8FQjtO3Kq-rvw9-30" value="" style="group" parent="1" vertex="1" connectable="0">
          <mxGeometry x="334" y="537.5" width="50" height="50" as="geometry" />
        </mxCell>
        <mxCell id="gjBuXh8FQjtO3Kq-rvw9-27" value="" style="whiteSpace=wrap;html=1;aspect=fixed;fillColor=#ffe6cc;strokeColor=#d79b00;" parent="gjBuXh8FQjtO3Kq-rvw9-30" vertex="1">
          <mxGeometry width="44" height="44" as="geometry" />
        </mxCell>
        <mxCell id="gjBuXh8FQjtO3Kq-rvw9-28" value="" style="whiteSpace=wrap;html=1;aspect=fixed;fillColor=#ffe6cc;strokeColor=#d79b00;" parent="gjBuXh8FQjtO3Kq-rvw9-30" vertex="1">
          <mxGeometry x="6" y="6" width="44" height="44" as="geometry" />
        </mxCell>
        <mxCell id="gjBuXh8FQjtO3Kq-rvw9-31" value="" style="endArrow=classic;html=1;rounded=0;" parent="1" edge="1">
          <mxGeometry width="50" height="50" relative="1" as="geometry">
            <mxPoint x="291" y="564.5" as="sourcePoint" />
            <mxPoint x="321" y="564.5" as="targetPoint" />
          </mxGeometry>
        </mxCell>
        <mxCell id="gjBuXh8FQjtO3Kq-rvw9-32" value="&lt;font style=&quot;font-size: 16px;&quot;&gt;构建样本集&lt;/font&gt;" style="text;html=1;align=center;verticalAlign=middle;whiteSpace=wrap;rounded=0;" parent="1" vertex="1">
          <mxGeometry x="317" y="605.5" width="90" height="30" as="geometry" />
        </mxCell>
        <mxCell id="gjBuXh8FQjtO3Kq-rvw9-104" value="" style="group" parent="1" vertex="1" connectable="0">
          <mxGeometry x="640" y="535" width="200" height="120" as="geometry" />
        </mxCell>
        <mxCell id="gjBuXh8FQjtO3Kq-rvw9-105" value="" style="rounded=1;whiteSpace=wrap;html=1;dashed=1;dashPattern=12 12;" parent="gjBuXh8FQjtO3Kq-rvw9-104" vertex="1">
          <mxGeometry x="-21" y="-14" width="211" height="134" as="geometry" />
        </mxCell>
        <mxCell id="gjBuXh8FQjtO3Kq-rvw9-106" value="" style="whiteSpace=wrap;html=1;aspect=fixed;fillColor=#d5e8d4;strokeColor=#82b366;" parent="gjBuXh8FQjtO3Kq-rvw9-104" vertex="1">
          <mxGeometry width="40" height="40" as="geometry" />
        </mxCell>
        <mxCell id="gjBuXh8FQjtO3Kq-rvw9-107" value="" style="whiteSpace=wrap;html=1;aspect=fixed;fillColor=#d5e8d4;strokeColor=#82b366;" parent="gjBuXh8FQjtO3Kq-rvw9-104" vertex="1">
          <mxGeometry x="5" y="6" width="40" height="40" as="geometry" />
        </mxCell>
        <mxCell id="gjBuXh8FQjtO3Kq-rvw9-108" value="" style="whiteSpace=wrap;html=1;aspect=fixed;fillColor=#d5e8d4;strokeColor=#82b366;" parent="gjBuXh8FQjtO3Kq-rvw9-104" vertex="1">
          <mxGeometry x="11" y="12" width="44" height="44" as="geometry" />
        </mxCell>
        <mxCell id="gjBuXh8FQjtO3Kq-rvw9-109" value="" style="whiteSpace=wrap;html=1;aspect=fixed;fillColor=#d5e8d4;strokeColor=#82b366;" parent="gjBuXh8FQjtO3Kq-rvw9-104" vertex="1">
          <mxGeometry x="17" y="18" width="44" height="44" as="geometry" />
        </mxCell>
        <mxCell id="gjBuXh8FQjtO3Kq-rvw9-110" value="&lt;font style=&quot;font-size: 16px;&quot;&gt;新任务&lt;/font&gt;&lt;div style=&quot;font-size: 16px;&quot;&gt;&lt;font style=&quot;font-size: 16px;&quot;&gt;数据集&lt;/font&gt;&lt;/div&gt;" style="text;html=1;align=center;verticalAlign=middle;whiteSpace=wrap;rounded=0;" parent="gjBuXh8FQjtO3Kq-rvw9-104" vertex="1">
          <mxGeometry x="-4" y="76" width="70" height="30" as="geometry" />
        </mxCell>
        <mxCell id="gjBuXh8FQjtO3Kq-rvw9-111" value="" style="group;" parent="1" vertex="1" connectable="0">
          <mxGeometry x="756" y="543" width="50" height="50" as="geometry" />
        </mxCell>
        <mxCell id="gjBuXh8FQjtO3Kq-rvw9-112" value="" style="whiteSpace=wrap;html=1;aspect=fixed;fillColor=#d5e8d4;strokeColor=#82b366;" parent="gjBuXh8FQjtO3Kq-rvw9-111" vertex="1">
          <mxGeometry width="44" height="44" as="geometry" />
        </mxCell>
        <mxCell id="gjBuXh8FQjtO3Kq-rvw9-113" value="" style="whiteSpace=wrap;html=1;aspect=fixed;fillColor=#d5e8d4;strokeColor=#82b366;" parent="gjBuXh8FQjtO3Kq-rvw9-111" vertex="1">
          <mxGeometry x="6" y="6" width="44" height="44" as="geometry" />
        </mxCell>
        <mxCell id="gjBuXh8FQjtO3Kq-rvw9-114" value="" style="endArrow=classic;html=1;rounded=0;" parent="1" edge="1">
          <mxGeometry width="50" height="50" relative="1" as="geometry">
            <mxPoint x="713" y="570" as="sourcePoint" />
            <mxPoint x="743" y="570" as="targetPoint" />
          </mxGeometry>
        </mxCell>
        <mxCell id="gjBuXh8FQjtO3Kq-rvw9-115" value="&lt;font style=&quot;font-size: 16px;&quot;&gt;构建样本集&lt;/font&gt;" style="text;html=1;align=center;verticalAlign=middle;whiteSpace=wrap;rounded=0;" parent="1" vertex="1">
          <mxGeometry x="739" y="611" width="90" height="30" as="geometry" />
        </mxCell>
        <mxCell id="gjBuXh8FQjtO3Kq-rvw9-116" value="&lt;div style=&quot;font-size: 18px; line-height: 130%;&quot;&gt;&lt;font style=&quot;font-size: 18px;&quot;&gt;多设备协同的&lt;b&gt;全局自适应聚合&lt;/b&gt;&lt;/font&gt;&lt;/div&gt;" style="text;html=1;align=center;verticalAlign=middle;whiteSpace=wrap;rounded=0;rotation=0;" parent="1" vertex="1">
          <mxGeometry x="-59.739999999999995" y="11.099999999999998" width="29.97" height="265.15" as="geometry" />
        </mxCell>
        <mxCell id="gjBuXh8FQjtO3Kq-rvw9-119" value="&lt;p style=&quot;line-height: 130%;&quot;&gt;&lt;/p&gt;&lt;div style=&quot;font-size: 18px; line-height: 130%;&quot;&gt;&lt;div style=&quot;line-height: 130%;&quot;&gt;面向边缘设备的&lt;b&gt;类脑持续学习&lt;/b&gt;&lt;/div&gt;&lt;div&gt;&lt;br&gt;&lt;/div&gt;&lt;/div&gt;&lt;p&gt;&lt;/p&gt;" style="text;html=1;align=center;verticalAlign=middle;whiteSpace=wrap;rounded=0;" parent="1" vertex="1">
          <mxGeometry x="-54.49999999999999" y="344.75" width="19.5" height="331.25" as="geometry" />
        </mxCell>
        <mxCell id="awNjA4CXRsY28UhJh66Y-3" value="Text" style="text;html=1;align=center;verticalAlign=middle;whiteSpace=wrap;rounded=0;" parent="1" vertex="1">
          <mxGeometry x="490" y="320" width="60" height="30" as="geometry" />
        </mxCell>
      </root>
    </mxGraphModel>
  </diagram>
</mxfile>
